<svg xmlns="http://www.w3.org/2000/svg" viewBox="0 0 1800 700" width="1800" height="700">
  <g transform="translate(900 360) rotate(45)" fill="#0a0a0a">
    <path d="M -260 -16 L 260 -16 L 260 16 L -260 16 Z M -260 0 m -40 0 a 40 40 0 1 0 80 0 a 40 40 0 1 0 -80 0 M 260 0 m -40 0 a 40 40 0 1 0 80 0 a 40 40 0 1 0 -80 0"/>
  </g>
  <g transform="translate(900 360) rotate(-45)" fill="#0a0a0a">
    <path d="M -260 -16 L 260 -16 L 260 16 L -260 16 Z M -260 0 m -40 0 a 40 40 0 1 0 80 0 a 40 40 0 1 0 -80 0 M 260 0 m -40 0 a 40 40 0 1 0 80 0 a 40 40 0 1 0 -80 0"/>
  </g>
  <text x="900" y="140" text-anchor="middle" font-family="Anton, Impact, sans-serif" font-size="110" font-weight="900" fill="#0a0a0a" letter-spacing="8">REYNOLDS&#39;S GARAGE</text>
  <text x="900" y="640" text-anchor="middle" font-family="JetBrains Mono, monospace" font-size="80" font-weight="700" fill="#0a0a0a" letter-spacing="12">EST. 1978</text>
</svg>